<svg width="300" height="300" viewBox="0 0 300 300" fill="none" xmlns="http://www.w3.org/2000/svg">
<path d="M66.6199 221.43C66.6199 221.19 66.6199 220.95 66.5699 220.71C66.5699 220.95 66.5699 221.19 66.6199 221.44V221.43Z" fill="#794BC4"/>
<path d="M126.11 159C126.159 160.789 125.565 162.537 124.437 163.926C123.308 165.316 121.719 166.255 119.958 166.574C118.197 166.893 116.38 166.571 114.835 165.666C113.291 164.761 112.122 163.333 111.54 161.64C111.945 162.836 112.644 163.91 113.573 164.765C114.503 165.619 115.632 166.225 116.858 166.528C118.083 166.832 119.365 166.821 120.585 166.498C121.806 166.176 122.925 165.551 123.841 164.682C124.756 163.813 125.438 162.727 125.824 161.525C126.209 160.323 126.286 159.043 126.047 157.804C125.807 156.564 125.26 155.405 124.455 154.432C123.65 153.46 122.613 152.706 121.44 152.24C122.792 152.789 123.955 153.722 124.785 154.923C125.614 156.123 126.075 157.541 126.11 159V159Z" fill="#794BC4"/>
<path d="M74.1501 213.51C73.0525 213.543 71.961 213.335 70.9522 212.901C69.9434 212.468 69.0416 211.819 68.3101 211C69.1611 211.976 70.2494 212.716 71.4699 213.149C72.6904 213.581 74.0019 213.692 75.2776 213.47C76.5534 213.248 77.7502 212.7 78.7526 211.88C79.755 211.061 80.5291 209.996 81.0001 208.79C80.4439 210.16 79.4988 211.337 78.2815 212.175C77.0642 213.014 75.628 213.478 74.1501 213.51V213.51Z" fill="#794BC4"/>
<path d="M89 198C88.7569 198.015 88.5131 198.015 88.27 198C88.53 198 88.79 198 89.06 198C90.4177 197.966 91.7412 197.567 92.8906 196.843C94.04 196.12 94.9726 195.1 95.59 193.89C94.9585 195.101 94.0142 196.121 92.8554 196.843C91.6965 197.566 90.3653 197.965 89 198V198Z" fill="#794BC4"/>
<path d="M193.27 88.8499C194.901 88.8213 196.479 88.2624 197.764 87.2576C199.049 86.2529 199.972 84.857 200.394 83.281C200.815 81.7049 200.712 80.0346 200.099 78.5225C199.487 77.0104 198.399 75.7387 197 74.8999L186.7 85.1999C187.375 86.3346 188.338 87.2702 189.492 87.9114C190.647 88.5525 191.95 88.8764 193.27 88.8499V88.8499Z" fill="#794BC4"/>
<path d="M178.38 104.44C180.054 104.407 181.668 103.815 182.968 102.759C184.267 101.703 185.176 100.244 185.55 98.6119C185.925 96.9802 185.743 95.2702 185.035 93.7534C184.327 92.2366 183.132 91 181.64 90.24L171.53 100.35C172.171 101.607 173.154 102.658 174.366 103.381C175.578 104.105 176.969 104.472 178.38 104.44V104.44Z" fill="#794BC4"/>
<path d="M169.2 102.68L168.36 103.52C168.66 103.26 168.94 102.98 169.2 102.68V102.68Z" fill="#794BC4"/>
<path d="M163.49 120C165.212 119.968 166.87 119.346 168.188 118.238C169.506 117.13 170.404 115.603 170.732 113.913C171.06 112.222 170.798 110.471 169.989 108.95C169.181 107.43 167.875 106.233 166.29 105.56L156.43 115.42C157.013 116.803 157.997 117.979 159.256 118.795C160.515 119.612 161.99 120.032 163.49 120V120Z" fill="#794BC4"/>
<path d="M208.16 73.2701C209.747 73.2385 211.283 72.7049 212.548 71.7459C213.813 70.7868 214.741 69.4517 215.2 67.9321C215.659 66.4125 215.624 64.7866 215.102 63.2879C214.579 61.7891 213.594 60.4946 212.29 59.5901L201.83 70.0501C202.538 71.0674 203.486 71.8938 204.59 72.4556C205.695 73.0175 206.921 73.2973 208.16 73.2701V73.2701Z" fill="#794BC4"/>
<path d="M118.2 135.83C119.782 135.792 121.341 136.212 122.69 137.04C122.56 136.96 122.45 136.86 122.32 136.79C123.978 135.88 125.318 134.484 126.16 132.79C127.318 134.657 129.171 135.988 131.31 136.49C130.114 136.864 129.03 137.532 128.157 138.431C127.284 139.33 126.649 140.433 126.31 141.64C126.539 142.386 126.667 143.16 126.69 143.94C126.709 144.681 126.625 145.422 126.44 146.14C126.866 147.368 127.602 148.464 128.577 149.323C129.553 150.181 130.734 150.772 132.006 151.038C133.278 151.304 134.597 151.236 135.835 150.84C137.073 150.445 138.187 149.735 139.068 148.781C139.95 147.826 140.57 146.66 140.867 145.395C141.163 144.13 141.127 142.809 140.762 141.562C140.396 140.315 139.714 139.184 138.781 138.28C137.849 137.375 136.697 136.727 135.44 136.4C136.86 135.993 138.146 135.216 139.165 134.147C140.185 133.078 140.901 131.757 141.24 130.32C141.629 131.57 142.338 132.697 143.296 133.59C144.254 134.482 145.429 135.109 146.704 135.407C147.979 135.706 149.309 135.667 150.564 135.294C151.819 134.921 152.955 134.226 153.86 133.279C154.764 132.332 155.405 131.165 155.72 129.894C156.035 128.623 156.012 127.292 155.655 126.033C155.297 124.773 154.617 123.628 153.681 122.712C152.746 121.796 151.587 121.141 150.32 120.81C150.87 120.652 151.379 120.376 151.81 120L90.54 58.7199C89.8339 58.0195 88.8796 57.6265 87.885 57.6265C86.8904 57.6265 85.9361 58.0195 85.23 58.7199L58.36 85.5999C57.8654 86.0966 57.5876 86.769 57.5876 87.4699C57.5876 88.1709 57.8654 88.8433 58.36 89.3399L110.52 141.5C111.06 139.879 112.087 138.463 113.462 137.449C114.837 136.434 116.492 135.868 118.2 135.83V135.83ZM141.05 117.2C141.622 118.126 142.371 118.929 143.255 119.564C144.139 120.2 145.14 120.653 146.2 120.9C144.99 121.289 143.897 121.976 143.023 122.899C142.15 123.822 141.522 124.95 141.2 126.18C140.906 125.128 140.407 124.144 139.73 123.286C139.054 122.427 138.214 121.712 137.26 121.18C138.901 120.272 140.224 118.883 141.05 117.2V117.2ZM125.71 105.3C126.092 105.667 126.503 106.001 126.94 106.3C126.48 106.7 126.058 107.142 125.68 107.62C125.379 107.197 125.045 106.799 124.68 106.43C125.051 106.08 125.396 105.702 125.71 105.3V105.3ZM125.95 119.11C126.757 120.063 127.755 120.836 128.88 121.38C127.667 122.112 126.665 123.146 125.97 124.38C125.366 123.292 124.55 122.336 123.57 121.57C124.514 120.894 125.335 120.062 126 119.11H125.95ZM110.82 120.89C111.206 121.256 111.62 121.59 112.06 121.89C111.592 122.285 111.166 122.727 110.79 123.21C110.489 122.787 110.155 122.389 109.79 122.02C110.156 121.665 110.5 121.288 110.82 120.89V120.89ZM111.08 140C110.483 138.905 109.666 137.945 108.68 137.18C109.611 136.497 110.416 135.658 111.06 134.7C111.868 135.664 112.87 136.447 114 137C112.785 137.732 111.779 138.765 111.08 140V140Z" fill="#794BC4"/>
<path d="M215.7 65.57C215.735 67.1593 216.274 68.6965 217.237 69.9609C218.201 71.2253 219.541 72.1517 221.064 72.6072C222.587 73.0627 224.215 73.0238 225.715 72.4961C227.214 71.9683 228.508 70.9789 229.41 69.6699L219 59.2C217.964 59.9041 217.12 60.8552 216.544 61.9673C215.968 63.0795 215.678 64.3176 215.7 65.57V65.57Z" fill="#794BC4"/>
<path d="M232.13 80.4399C232.16 81.7604 232.609 83.0371 233.413 84.085C234.217 85.133 235.334 85.8978 236.602 86.2688C237.869 86.6397 239.222 86.5975 240.464 86.1482C241.706 85.699 242.773 84.866 243.51 83.7699L234.88 75.1399C234.013 75.7204 233.306 76.5105 232.825 77.437C232.344 78.3635 232.105 79.3964 232.13 80.4399V80.4399Z" fill="#794BC4"/>
<path d="M223 73.8C221.648 73.832 220.336 74.2639 219.23 75.0413C218.123 75.8186 217.272 76.9065 216.783 78.1674C216.295 79.4284 216.191 80.8058 216.485 82.1257C216.779 83.4456 217.458 84.6487 218.436 85.583C219.413 86.5173 220.646 87.1408 221.978 87.3749C223.31 87.6089 224.681 87.443 225.918 86.8979C227.156 86.3529 228.204 85.4533 228.931 84.3128C229.657 83.1722 230.029 81.842 230 80.49C229.958 78.6749 229.197 76.9507 227.885 75.6962C226.572 74.4418 224.815 73.7598 223 73.8V73.8Z" fill="#794BC4"/>
<path d="M208.17 73.46C206.68 73.4921 205.234 73.9654 204.013 74.82C202.793 75.6746 201.853 76.872 201.313 78.2608C200.774 79.6497 200.658 81.1674 200.981 82.6218C201.305 84.0763 202.052 85.4023 203.129 86.4317C204.206 87.4612 205.565 88.148 207.032 88.4052C208.5 88.6624 210.011 88.4784 211.374 87.8765C212.737 87.2746 213.891 86.2819 214.689 85.024C215.488 83.7661 215.895 82.2996 215.86 80.81C215.813 78.8163 214.977 76.9227 213.535 75.5448C212.093 74.1668 210.164 73.4171 208.17 73.46V73.46Z" fill="#794BC4"/>
<path d="M223.32 89.6601C222.09 89.688 220.896 90.08 219.889 90.7865C218.882 91.4929 218.108 92.482 217.663 93.6288C217.218 94.7756 217.123 96.0285 217.39 97.2293C217.657 98.43 218.274 99.5245 219.163 100.375C220.053 101.225 221.174 101.792 222.385 102.005C223.597 102.217 224.844 102.066 225.97 101.57C227.095 101.074 228.049 100.256 228.709 99.2178C229.37 98.1801 229.707 96.9698 229.68 95.7401C229.662 94.9232 229.483 94.1179 229.153 93.3702C228.824 92.6225 228.35 91.947 227.76 91.3824C227.169 90.8178 226.473 90.375 225.711 90.0795C224.949 89.784 224.137 89.6415 223.32 89.6601V89.6601Z" fill="#794BC4"/>
<path d="M208.1 89.3901C206.748 89.4221 205.435 89.8543 204.329 90.6322C203.222 91.41 202.371 92.4985 201.883 93.76C201.395 95.0215 201.292 96.3995 201.586 97.7196C201.881 99.0397 202.561 100.243 203.54 101.177C204.518 102.11 205.752 102.733 207.084 102.966C208.417 103.199 209.788 103.032 211.026 102.485C212.263 101.938 213.31 101.037 214.036 99.8954C214.761 98.7536 215.131 97.4224 215.1 96.0701C215.081 95.1714 214.884 94.2853 214.521 93.4628C214.159 92.6403 213.637 91.8974 212.987 91.2768C212.337 90.6562 211.57 90.1701 210.732 89.8463C209.893 89.5225 208.999 89.3675 208.1 89.3901V89.3901Z" fill="#794BC4"/>
<path d="M193.28 89C191.794 89.0377 190.352 89.5145 189.137 90.3702C187.921 91.2259 186.986 92.4223 186.449 93.8086C185.912 95.1949 185.798 96.7091 186.12 98.1603C186.443 99.6115 187.187 100.935 188.26 101.964C189.334 102.992 190.687 103.68 192.151 103.941C193.614 104.202 195.122 104.023 196.485 103.428C197.847 102.833 199.003 101.848 199.806 100.598C200.61 99.3469 201.025 97.8864 201 96.4C200.982 95.4063 200.767 94.4261 200.369 93.5156C199.971 92.6051 199.396 91.7823 198.679 91.0946C197.961 90.4069 197.115 89.8678 196.188 89.5083C195.262 89.1488 194.273 88.9761 193.28 89V89Z" fill="#794BC4"/>
<path d="M208.43 105.25C207.2 105.278 206.006 105.67 204.999 106.377C203.991 107.084 203.216 108.074 202.772 109.221C202.327 110.368 202.233 111.622 202.501 112.823C202.769 114.024 203.387 115.118 204.277 115.968C205.168 116.817 206.29 117.384 207.502 117.596C208.714 117.807 209.962 117.655 211.087 117.157C212.212 116.659 213.165 115.839 213.824 114.8C214.483 113.761 214.819 112.55 214.79 111.32C214.772 110.503 214.593 109.699 214.263 108.951C213.934 108.204 213.46 107.53 212.869 106.966C212.278 106.402 211.582 105.96 210.82 105.666C210.059 105.371 209.246 105.23 208.43 105.25V105.25Z" fill="#794BC4"/>
<path d="M193.21 105C191.855 105.03 190.54 105.461 189.43 106.239C188.321 107.017 187.467 108.106 186.976 109.369C186.486 110.633 186.381 112.013 186.675 113.336C186.969 114.658 187.649 115.864 188.629 116.8C189.609 117.737 190.844 118.361 192.179 118.595C193.513 118.829 194.888 118.662 196.127 118.115C197.367 117.568 198.417 116.666 199.143 115.522C199.87 114.378 200.241 113.045 200.21 111.69C200.191 110.791 199.994 109.904 199.631 109.081C199.269 108.258 198.748 107.515 198.097 106.893C197.447 106.272 196.681 105.785 195.842 105.46C195.004 105.135 194.109 104.979 193.21 105V105Z" fill="#794BC4"/>
<path d="M178.39 104.63C176.9 104.662 175.454 105.135 174.233 105.99C173.013 106.844 172.073 108.042 171.533 109.431C170.994 110.82 170.878 112.337 171.201 113.792C171.525 115.246 172.272 116.572 173.349 117.602C174.426 118.631 175.785 119.318 177.252 119.575C178.72 119.832 180.231 119.648 181.594 119.046C182.957 118.445 184.111 117.452 184.909 116.194C185.708 114.936 186.115 113.469 186.08 111.98C186.033 109.986 185.197 108.093 183.755 106.715C182.313 105.337 180.384 104.587 178.39 104.63Z" fill="#794BC4"/>
<path d="M193.54 120.83C192.311 120.86 191.118 121.254 190.112 121.961C189.107 122.669 188.333 123.659 187.89 124.805C187.447 125.952 187.353 127.205 187.621 128.405C187.89 129.605 188.507 130.699 189.397 131.548C190.286 132.397 191.408 132.963 192.619 133.175C193.83 133.387 195.077 133.235 196.202 132.739C197.327 132.243 198.28 131.424 198.94 130.387C199.6 129.349 199.937 128.139 199.91 126.91C199.892 126.092 199.713 125.286 199.382 124.538C199.052 123.789 198.578 123.113 197.986 122.549C197.394 121.984 196.697 121.541 195.934 121.247C195.171 120.952 194.358 120.81 193.54 120.83V120.83Z" fill="#794BC4"/>
<path d="M178.32 120.56C176.968 120.592 175.655 121.024 174.549 121.802C173.442 122.58 172.591 123.668 172.103 124.93C171.615 126.191 171.511 127.569 171.806 128.89C172.101 130.21 172.781 131.413 173.76 132.347C174.738 133.28 175.972 133.903 177.304 134.136C178.637 134.369 180.008 134.201 181.246 133.655C182.483 133.108 183.53 132.207 184.256 131.065C184.981 129.924 185.351 128.592 185.32 127.24C185.299 126.342 185.102 125.456 184.739 124.634C184.376 123.812 183.854 123.07 183.204 122.45C182.554 121.829 181.788 121.343 180.95 121.019C180.112 120.695 179.218 120.539 178.32 120.56Z" fill="#794BC4"/>
<path d="M163.5 120.21C162.011 120.242 160.564 120.715 159.344 121.569C158.124 122.423 157.184 123.62 156.644 125.008C156.104 126.397 155.988 127.914 156.31 129.368C156.633 130.822 157.379 132.148 158.455 133.178C159.531 134.208 160.889 134.896 162.356 135.154C163.823 135.413 165.333 135.23 166.697 134.63C168.06 134.029 169.214 133.038 170.014 131.781C170.814 130.525 171.223 129.059 171.19 127.57C171.143 125.575 170.307 123.681 168.865 122.301C167.424 120.922 165.495 120.17 163.5 120.21V120.21Z" fill="#794BC4"/>
<path d="M178.65 136.42C177.42 136.446 176.225 136.836 175.217 137.542C174.208 138.247 173.432 139.235 172.985 140.382C172.539 141.529 172.443 142.782 172.709 143.983C172.975 145.185 173.591 146.28 174.48 147.131C175.369 147.982 176.49 148.551 177.702 148.764C178.914 148.978 180.161 148.827 181.288 148.331C182.414 147.836 183.368 147.017 184.029 145.979C184.689 144.941 185.027 143.73 185 142.5C184.963 140.852 184.274 139.286 183.083 138.146C181.893 137.006 180.298 136.385 178.65 136.42V136.42Z" fill="#794BC4"/>
<path d="M163.43 136.15C162.078 136.182 160.765 136.614 159.659 137.392C158.552 138.17 157.701 139.258 157.213 140.52C156.725 141.781 156.621 143.159 156.916 144.479C157.211 145.799 157.891 147.003 158.87 147.936C159.848 148.87 161.082 149.493 162.414 149.726C163.747 149.959 165.118 149.791 166.356 149.245C167.593 148.698 168.64 147.797 169.366 146.655C170.091 145.513 170.461 144.182 170.43 142.83C170.412 141.931 170.216 141.044 169.854 140.221C169.492 139.398 168.97 138.654 168.32 138.034C167.669 137.413 166.902 136.927 166.063 136.603C165.224 136.28 164.329 136.126 163.43 136.15Z" fill="#794BC4"/>
<path d="M148.61 135.8C147.121 135.834 145.675 136.309 144.456 137.165C143.237 138.021 142.299 139.219 141.761 140.608C141.223 141.997 141.108 143.514 141.433 144.968C141.757 146.422 142.505 147.746 143.583 148.775C144.66 149.803 146.019 150.489 147.486 150.746C148.953 151.002 150.464 150.818 151.826 150.215C153.188 149.613 154.342 148.621 155.14 147.363C155.938 146.105 156.345 144.639 156.31 143.15C156.263 141.155 155.425 139.259 153.981 137.881C152.537 136.503 150.606 135.754 148.61 135.8V135.8Z" fill="#794BC4"/>
<path d="M163.76 152C162.53 152.03 161.337 152.424 160.331 153.132C159.326 153.84 158.552 154.83 158.109 155.978C157.666 157.125 157.573 158.378 157.842 159.579C158.111 160.779 158.73 161.872 159.621 162.721C160.511 163.57 161.633 164.135 162.845 164.346C164.057 164.557 165.304 164.404 166.429 163.906C167.554 163.408 168.506 162.588 169.165 161.549C169.823 160.51 170.159 159.3 170.13 158.07C170.112 157.253 169.933 156.447 169.602 155.699C169.272 154.951 168.797 154.276 168.206 153.712C167.614 153.148 166.916 152.707 166.153 152.413C165.391 152.119 164.577 151.979 163.76 152V152Z" fill="#794BC4"/>
<path d="M148.54 151.73C147.188 151.762 145.876 152.194 144.77 152.971C143.663 153.749 142.812 154.836 142.323 156.097C141.835 157.358 141.731 158.736 142.025 160.056C142.319 161.376 142.998 162.579 143.976 163.513C144.953 164.447 146.186 165.071 147.518 165.305C148.85 165.539 150.221 165.373 151.458 164.828C152.696 164.283 153.744 163.383 154.471 162.243C155.197 161.102 155.569 159.772 155.54 158.42C155.52 157.521 155.324 156.634 154.961 155.811C154.599 154.988 154.078 154.245 153.427 153.623C152.777 153.002 152.011 152.515 151.172 152.19C150.334 151.865 149.439 151.709 148.54 151.73V151.73Z" fill="#794BC4"/>
<path d="M133.72 151.39C132.231 151.424 130.785 151.899 129.566 152.755C128.347 153.61 127.409 154.809 126.871 156.197C126.333 157.586 126.218 159.104 126.543 160.558C126.867 162.011 127.615 163.336 128.693 164.365C129.77 165.393 131.129 166.079 132.596 166.336C134.063 166.592 135.574 166.407 136.936 165.805C138.298 165.203 139.452 164.21 140.25 162.953C141.048 161.695 141.455 160.229 141.42 158.74C141.373 156.744 140.535 154.849 139.091 153.471C137.647 152.093 135.715 151.344 133.72 151.39V151.39Z" fill="#794BC4"/>
<path d="M179 152.15C177.867 152.176 176.767 152.537 175.84 153.188C174.912 153.839 174.199 154.75 173.789 155.807C173.379 156.864 173.292 158.018 173.538 159.124C173.785 160.23 174.353 161.238 175.173 162.021C175.992 162.804 177.025 163.326 178.141 163.522C179.257 163.718 180.406 163.579 181.443 163.121C182.48 162.664 183.358 161.91 183.966 160.954C184.574 159.998 184.885 158.883 184.86 157.75C184.843 156.997 184.678 156.256 184.375 155.567C184.071 154.878 183.634 154.256 183.09 153.736C182.546 153.216 181.905 152.808 181.203 152.536C180.501 152.264 179.753 152.133 179 152.15V152.15Z" fill="#794BC4"/>
<path d="M148.87 167.59C147.641 167.62 146.448 168.014 145.442 168.721C144.437 169.429 143.663 170.419 143.22 171.565C142.777 172.712 142.683 173.965 142.951 175.165C143.22 176.365 143.837 177.459 144.727 178.308C145.616 179.157 146.738 179.723 147.949 179.935C149.16 180.147 150.407 179.995 151.532 179.499C152.657 179.003 153.61 178.184 154.27 177.147C154.93 176.109 155.267 174.899 155.24 173.67C155.222 172.852 155.043 172.046 154.712 171.298C154.382 170.549 153.908 169.873 153.316 169.309C152.724 168.744 152.027 168.301 151.264 168.007C150.501 167.712 149.688 167.57 148.87 167.59V167.59Z" fill="#794BC4"/>
<path d="M133.65 167.32C132.298 167.352 130.985 167.784 129.879 168.562C128.772 169.34 127.921 170.428 127.433 171.69C126.945 172.951 126.841 174.329 127.136 175.649C127.431 176.97 128.111 178.173 129.09 179.106C130.068 180.04 131.302 180.663 132.634 180.896C133.967 181.129 135.338 180.961 136.576 180.415C137.813 179.868 138.86 178.967 139.586 177.825C140.311 176.684 140.681 175.352 140.65 174C140.631 173.101 140.434 172.215 140.071 171.393C139.709 170.57 139.187 169.827 138.537 169.207C137.887 168.586 137.12 168.1 136.281 167.776C135.443 167.452 134.549 167.297 133.65 167.32Z" fill="#794BC4"/>
<path d="M118.83 167C117.341 167.034 115.896 167.509 114.677 168.364C113.458 169.219 112.52 170.417 111.981 171.805C111.443 173.193 111.328 174.71 111.652 176.164C111.975 177.617 112.722 178.942 113.799 179.971C114.875 181 116.233 181.687 117.699 181.945C119.166 182.202 120.676 182.019 122.039 181.418C123.402 180.818 124.556 179.827 125.355 178.57C126.154 177.314 126.563 175.849 126.53 174.36C126.483 172.364 125.646 170.468 124.202 169.088C122.758 167.708 120.827 166.957 118.83 167V167Z" fill="#794BC4"/>
<path d="M169.272 176.161C170.773 173.375 169.73 169.9 166.944 168.399C164.157 166.899 160.682 167.942 159.182 170.728C157.682 173.514 158.724 176.989 161.511 178.49C164.297 179.99 167.772 178.947 169.272 176.161Z" fill="#794BC4"/>
<path d="M178.85 168C177.828 168.022 176.835 168.348 175.998 168.935C175.161 169.523 174.518 170.346 174.149 171.299C173.781 172.253 173.704 173.295 173.929 174.292C174.153 175.29 174.669 176.198 175.411 176.902C176.153 177.606 177.087 178.073 178.095 178.245C179.103 178.417 180.139 178.286 181.072 177.868C182.005 177.45 182.793 176.764 183.336 175.897C183.879 175.03 184.152 174.022 184.12 173C184.076 171.641 183.498 170.354 182.511 169.418C181.525 168.483 180.209 167.973 178.85 168V168Z" fill="#794BC4"/>
<path d="M194.31 177.23C195.192 177.21 196.049 176.929 196.771 176.422C197.493 175.915 198.049 175.205 198.368 174.382C198.686 173.559 198.754 172.66 198.561 171.799C198.369 170.938 197.926 170.153 197.287 169.544C196.649 168.935 195.844 168.529 194.975 168.377C194.105 168.226 193.21 168.336 192.404 168.693C191.597 169.05 190.914 169.638 190.441 170.384C189.969 171.129 189.728 171.998 189.75 172.88C189.762 173.466 189.889 174.043 190.125 174.579C190.361 175.116 190.701 175.6 191.124 176.004C191.548 176.409 192.048 176.725 192.595 176.935C193.141 177.146 193.724 177.246 194.31 177.23V177.23Z" fill="#794BC4"/>
<path d="M134 183.18C132.77 183.208 131.576 183.6 130.569 184.306C129.562 185.013 128.787 186.002 128.343 187.149C127.898 188.296 127.803 189.549 128.07 190.749C128.337 191.95 128.954 193.045 129.843 193.895C130.733 194.745 131.854 195.312 133.065 195.525C134.277 195.737 135.524 195.586 136.65 195.09C137.775 194.594 138.729 193.776 139.389 192.738C140.049 191.7 140.387 190.49 140.36 189.26C140.342 188.443 140.163 187.638 139.833 186.89C139.504 186.142 139.03 185.467 138.44 184.902C137.849 184.338 137.153 183.895 136.391 183.6C135.629 183.304 134.817 183.161 134 183.18Z" fill="#794BC4"/>
<path d="M118.76 182.9C117.405 182.93 116.09 183.361 114.98 184.139C113.87 184.917 113.016 186.006 112.526 187.269C112.036 188.533 111.931 189.913 112.225 191.236C112.519 192.559 113.199 193.764 114.179 194.701C115.159 195.637 116.394 196.261 117.729 196.495C119.063 196.73 120.437 196.562 121.677 196.015C122.917 195.468 123.967 194.566 124.693 193.422C125.42 192.278 125.791 190.945 125.76 189.59C125.74 188.691 125.544 187.804 125.181 186.981C124.819 186.158 124.298 185.415 123.647 184.793C122.997 184.172 122.231 183.685 121.392 183.36C120.554 183.035 119.659 182.879 118.76 182.9V182.9Z" fill="#794BC4"/>
<path d="M103.94 182.56C102.451 182.594 101.005 183.069 99.7861 183.925C98.5669 184.781 97.6289 185.979 97.0908 187.368C96.5526 188.757 96.4385 190.274 96.7628 191.728C97.0872 193.182 97.8354 194.506 98.9129 195.535C99.9903 196.563 101.349 197.249 102.816 197.506C104.283 197.762 105.794 197.578 107.156 196.975C108.518 196.373 109.672 195.381 110.47 194.123C111.268 192.865 111.675 191.399 111.64 189.91C111.618 188.922 111.401 187.947 111.002 187.043C110.603 186.138 110.029 185.321 109.314 184.638C108.599 183.956 107.756 183.421 106.834 183.064C105.912 182.707 104.928 182.536 103.94 182.56V182.56Z" fill="#794BC4"/>
<path d="M164.62 183.54C163.73 183.56 162.867 183.843 162.138 184.354C161.409 184.865 160.848 185.58 160.526 186.41C160.204 187.24 160.135 188.146 160.328 189.015C160.521 189.884 160.967 190.676 161.611 191.291C162.254 191.906 163.065 192.316 163.941 192.471C164.818 192.625 165.72 192.516 166.535 192.157C167.349 191.799 168.039 191.207 168.517 190.456C168.995 189.705 169.24 188.83 169.22 187.94C169.207 187.349 169.078 186.766 168.839 186.225C168.601 185.684 168.259 185.196 167.832 184.787C167.404 184.378 166.901 184.058 166.35 183.844C165.799 183.63 165.211 183.527 164.62 183.54Z" fill="#794BC4"/>
<path d="M209.57 190.94C210.217 190.928 210.847 190.724 211.378 190.354C211.909 189.984 212.319 189.464 212.555 188.861C212.79 188.258 212.842 187.599 212.702 186.966C212.563 186.334 212.239 185.757 211.771 185.309C211.303 184.861 210.713 184.562 210.076 184.45C209.438 184.338 208.781 184.418 208.189 184.679C207.596 184.94 207.095 185.372 206.748 185.919C206.401 186.465 206.224 187.103 206.24 187.75C206.261 188.614 206.623 189.434 207.247 190.032C207.871 190.63 208.706 190.956 209.57 190.94V190.94Z" fill="#794BC4"/>
<path d="M194.19 184C193.397 184.014 192.627 184.263 191.976 184.716C191.326 185.169 190.824 185.805 190.536 186.544C190.247 187.282 190.185 188.089 190.356 188.863C190.527 189.638 190.925 190.343 191.498 190.891C192.071 191.439 192.794 191.804 193.575 191.94C194.356 192.076 195.159 191.977 195.884 191.655C196.609 191.334 197.221 190.804 197.644 190.134C198.067 189.463 198.282 188.682 198.26 187.89C198.231 186.836 197.787 185.836 197.025 185.108C196.263 184.379 195.244 183.981 194.19 184Z" fill="#794BC4"/>
<path d="M179.21 183.91C178.328 183.93 177.471 184.211 176.749 184.718C176.027 185.225 175.471 185.935 175.152 186.758C174.834 187.581 174.766 188.48 174.959 189.341C175.151 190.202 175.594 190.987 176.233 191.596C176.871 192.205 177.676 192.611 178.545 192.763C179.415 192.914 180.309 192.804 181.116 192.447C181.923 192.09 182.606 191.502 183.079 190.756C183.551 190.011 183.792 189.142 183.77 188.26C183.741 187.079 183.245 185.957 182.39 185.142C181.535 184.326 180.391 183.883 179.21 183.91Z" fill="#794BC4"/>
<path d="M119.1 198.76C117.87 198.788 116.676 199.18 115.669 199.886C114.662 200.593 113.887 201.582 113.443 202.729C112.998 203.875 112.903 205.128 113.17 206.329C113.437 207.53 114.054 208.624 114.943 209.474C115.833 210.324 116.954 210.892 118.165 211.104C119.377 211.317 120.624 211.166 121.75 210.67C122.875 210.174 123.829 209.355 124.489 208.318C125.149 207.28 125.487 206.07 125.46 204.84C125.442 204.023 125.263 203.218 124.933 202.47C124.604 201.722 124.13 201.047 123.54 200.482C122.949 199.918 122.253 199.475 121.491 199.179C120.729 198.884 119.917 198.741 119.1 198.76V198.76Z" fill="#794BC4"/>
<path d="M103.87 198.49C102.518 198.522 101.205 198.954 100.099 199.732C98.9919 200.51 98.1407 201.598 97.6526 202.86C97.1645 204.121 97.0614 205.499 97.3563 206.819C97.6513 208.14 98.331 209.343 99.3096 210.276C100.288 211.21 101.522 211.833 102.854 212.066C104.187 212.299 105.558 212.131 106.796 211.585C108.033 211.038 109.08 210.137 109.806 208.995C110.531 207.853 110.901 206.522 110.87 205.17C110.825 203.357 110.063 201.635 108.751 200.383C107.439 199.13 105.683 198.45 103.87 198.49V198.49Z" fill="#794BC4"/>
<path d="M89.05 198.14C87.5613 198.174 86.116 198.649 84.897 199.504C83.678 200.359 82.74 201.557 82.2015 202.945C81.663 204.333 81.5482 205.85 81.8717 207.304C82.1952 208.757 82.9424 210.082 84.0189 211.111C85.0954 212.14 86.4528 212.827 87.9195 213.084C89.3861 213.342 90.8963 213.159 92.2589 212.558C93.6216 211.958 94.7755 210.967 95.5749 209.71C96.3743 208.454 96.7833 206.989 96.75 205.5C96.7293 204.511 96.5134 203.535 96.1149 202.629C95.7164 201.724 95.1431 200.905 94.4277 200.222C93.7124 199.538 92.8692 199.002 91.9463 198.645C91.0235 198.288 90.0393 198.116 89.05 198.14V198.14Z" fill="#794BC4"/>
<path d="M194.53 200C193.886 200.016 193.261 200.222 192.734 200.593C192.207 200.964 191.802 201.483 191.57 202.084C191.338 202.685 191.289 203.341 191.429 203.97C191.57 204.598 191.893 205.172 192.359 205.617C192.825 206.062 193.412 206.358 194.047 206.47C194.681 206.581 195.335 206.502 195.924 206.243C196.514 205.983 197.014 205.554 197.36 205.011C197.706 204.468 197.884 203.834 197.87 203.19C197.862 202.761 197.769 202.337 197.597 201.944C197.425 201.55 197.176 201.195 196.865 200.899C196.555 200.602 196.188 200.37 195.788 200.216C195.387 200.061 194.959 199.988 194.53 200V200Z" fill="#794BC4"/>
<path d="M209.35 200C208.769 200.012 208.204 200.196 207.727 200.529C207.251 200.862 206.883 201.328 206.672 201.87C206.46 202.412 206.414 203.004 206.539 203.572C206.664 204.14 206.955 204.657 207.375 205.06C207.794 205.463 208.323 205.732 208.896 205.834C209.468 205.936 210.058 205.865 210.591 205.632C211.123 205.399 211.575 205.013 211.888 204.523C212.201 204.033 212.362 203.461 212.35 202.88C212.342 202.494 212.258 202.113 212.103 201.759C211.948 201.406 211.725 201.086 211.447 200.818C211.168 200.551 210.839 200.341 210.48 200.201C210.12 200.06 209.736 199.992 209.35 200V200Z" fill="#794BC4"/>
<path d="M224.54 205.21C225.06 205.198 225.565 205.032 225.99 204.733C226.416 204.434 226.744 204.016 226.932 203.531C227.12 203.046 227.16 202.516 227.046 202.009C226.933 201.501 226.672 201.038 226.296 200.679C225.92 200.32 225.446 200.08 224.934 199.99C224.421 199.9 223.894 199.964 223.418 200.174C222.942 200.384 222.539 200.73 222.26 201.169C221.981 201.608 221.838 202.12 221.85 202.64C221.858 202.985 221.934 203.326 222.073 203.642C222.212 203.958 222.413 204.244 222.663 204.482C222.912 204.721 223.207 204.908 223.529 205.033C223.851 205.158 224.195 205.218 224.54 205.21V205.21Z" fill="#794BC4"/>
<path d="M179.3 199.62C178.508 199.634 177.738 199.883 177.087 200.336C176.437 200.788 175.935 201.423 175.646 202.161C175.358 202.899 175.294 203.706 175.465 204.48C175.635 205.254 176.032 205.959 176.604 206.507C177.176 207.056 177.898 207.422 178.678 207.559C179.458 207.696 180.262 207.599 180.987 207.279C181.712 206.959 182.325 206.43 182.749 205.761C183.174 205.092 183.39 204.312 183.37 203.52C183.344 202.464 182.901 201.462 182.139 200.731C181.376 200.001 180.356 199.601 179.3 199.62V199.62Z" fill="#794BC4"/>
<path d="M104.21 214.35C102.98 214.378 101.786 214.77 100.779 215.476C99.7725 216.183 98.9976 217.172 98.5527 218.319C98.1078 219.466 98.0129 220.718 98.28 221.919C98.5472 223.12 99.1643 224.214 100.053 225.064C100.943 225.914 102.064 226.482 103.275 226.695C104.487 226.907 105.734 226.756 106.86 226.26C107.985 225.764 108.939 224.946 109.599 223.908C110.26 222.87 110.597 221.66 110.57 220.43C110.552 219.613 110.373 218.808 110.043 218.06C109.714 217.312 109.24 216.637 108.65 216.072C108.059 215.508 107.363 215.065 106.601 214.769C105.839 214.474 105.027 214.331 104.21 214.35V214.35Z" fill="#794BC4"/>
<path d="M89 214.08C87.6477 214.112 86.3352 214.544 85.2286 215.322C84.1219 216.1 83.2707 217.188 82.7826 218.45C82.2945 219.711 82.1914 221.089 82.4864 222.41C82.7813 223.73 83.461 224.933 84.4396 225.867C85.4182 226.8 86.6517 227.423 87.9842 227.656C89.3166 227.889 90.6882 227.721 91.9255 227.175C93.1629 226.628 94.2104 225.727 94.9356 224.585C95.6608 223.444 96.0312 222.112 96 220.76C95.9805 219.861 95.7838 218.975 95.4212 218.153C95.0586 217.33 94.5372 216.587 93.8868 215.967C93.2365 215.346 92.4701 214.86 91.6315 214.536C90.7929 214.212 89.8986 214.057 89 214.08Z" fill="#794BC4"/>
<path d="M74.16 213.73C72.6709 213.764 71.2253 214.239 70.0061 215.095C68.7869 215.95 67.8489 217.149 67.3107 218.538C66.7726 219.926 66.6585 221.444 66.9828 222.898C67.3071 224.351 68.0554 225.676 69.1328 226.705C70.2103 227.733 71.5686 228.419 73.0359 228.676C74.5032 228.932 76.0136 228.747 77.3761 228.145C78.7385 227.543 79.8917 226.551 80.6899 225.293C81.488 224.035 81.8952 222.569 81.86 221.08C81.838 220.092 81.6212 219.117 81.2221 218.212C80.823 217.308 80.2495 216.491 79.5343 215.808C78.8191 215.125 77.9763 214.591 77.0541 214.234C76.1319 213.877 75.1485 213.706 74.16 213.73V213.73Z" fill="#794BC4"/>
<path d="M194.46 215.57C193.878 215.582 193.313 215.766 192.836 216.1C192.359 216.433 191.992 216.9 191.781 217.443C191.57 217.985 191.525 218.577 191.65 219.146C191.776 219.714 192.068 220.232 192.488 220.634C192.909 221.036 193.439 221.304 194.012 221.405C194.585 221.506 195.175 221.434 195.708 221.199C196.24 220.964 196.691 220.577 197.003 220.085C197.315 219.594 197.474 219.022 197.46 218.44C197.452 218.054 197.368 217.674 197.213 217.321C197.058 216.968 196.835 216.649 196.556 216.382C196.277 216.115 195.949 215.906 195.589 215.767C195.229 215.628 194.846 215.561 194.46 215.57V215.57Z" fill="#794BC4"/>
<path d="M209.53 215.53C209.01 215.542 208.505 215.708 208.08 216.007C207.654 216.306 207.326 216.724 207.138 217.209C206.95 217.694 206.911 218.224 207.024 218.731C207.137 219.239 207.398 219.702 207.774 220.061C208.15 220.42 208.624 220.66 209.136 220.75C209.649 220.84 210.176 220.776 210.652 220.566C211.128 220.356 211.531 220.01 211.81 219.571C212.089 219.132 212.232 218.62 212.22 218.1C212.212 217.755 212.136 217.414 211.997 217.098C211.858 216.782 211.657 216.496 211.407 216.258C211.158 216.019 210.863 215.832 210.541 215.707C210.219 215.582 209.875 215.522 209.53 215.53V215.53Z" fill="#794BC4"/>
<path d="M224.85 219.67C225.219 219.664 225.577 219.548 225.88 219.338C226.183 219.128 226.416 218.832 226.551 218.489C226.686 218.146 226.715 217.77 226.636 217.41C226.557 217.05 226.372 216.722 226.106 216.467C225.84 216.212 225.503 216.042 225.14 215.978C224.777 215.914 224.403 215.96 224.066 216.109C223.729 216.259 223.444 216.505 223.247 216.817C223.05 217.128 222.95 217.491 222.96 217.86C222.964 218.103 223.016 218.343 223.113 218.567C223.211 218.79 223.351 218.991 223.527 219.16C223.703 219.328 223.91 219.46 224.137 219.547C224.365 219.635 224.607 219.677 224.85 219.67V219.67Z" fill="#794BC4"/>
<path d="M240 219.16C240.335 219.154 240.66 219.049 240.935 218.858C241.209 218.667 241.421 218.398 241.543 218.087C241.665 217.775 241.692 217.434 241.62 217.107C241.548 216.781 241.381 216.482 241.139 216.251C240.898 216.019 240.593 215.864 240.264 215.806C239.934 215.748 239.595 215.789 239.288 215.924C238.982 216.058 238.723 216.281 238.543 216.564C238.364 216.846 238.272 217.175 238.28 217.51C238.293 217.956 238.481 218.378 238.802 218.687C239.124 218.996 239.554 219.165 240 219.16V219.16Z" fill="#794BC4"/>
<path d="M89.3201 229.94C88.0895 229.968 86.8949 230.361 85.8876 231.068C84.8802 231.776 84.1054 232.766 83.6612 233.914C83.217 235.062 83.1234 236.316 83.3922 237.517C83.661 238.718 84.2802 239.812 85.1714 240.662C86.0625 241.511 87.1855 242.076 88.3983 242.287C89.6111 242.497 90.859 242.343 91.9842 241.844C93.1093 241.345 94.0611 240.523 94.719 239.483C95.3769 238.443 95.7114 237.231 95.6801 236C95.6606 235.185 95.4806 234.381 95.1504 233.635C94.8202 232.889 94.3463 232.215 93.7556 231.652C93.165 231.09 92.4693 230.649 91.7082 230.355C90.9471 230.061 90.1356 229.92 89.3201 229.94V229.94Z" fill="#794BC4"/>
<path d="M74.09 229.66C72.3906 229.7 70.7677 230.374 69.54 231.55L79.21 241.22C80.1398 240.239 80.7584 239.005 80.9881 237.673C81.2178 236.341 81.0483 234.97 80.501 233.734C79.9536 232.499 79.0528 231.452 77.912 230.727C76.7712 230.002 75.4414 229.631 74.09 229.66V229.66Z" fill="#794BC4"/>
<path d="M209.88 231.55C209.511 231.556 209.153 231.672 208.85 231.882C208.547 232.092 208.314 232.388 208.179 232.731C208.044 233.074 208.015 233.45 208.094 233.81C208.173 234.17 208.358 234.498 208.624 234.753C208.89 235.008 209.226 235.178 209.59 235.242C209.953 235.305 210.327 235.26 210.664 235.11C211.001 234.961 211.286 234.715 211.483 234.403C211.68 234.092 211.78 233.729 211.77 233.36C211.766 233.117 211.714 232.876 211.617 232.653C211.519 232.43 211.379 232.229 211.203 232.06C211.027 231.892 210.82 231.76 210.593 231.673C210.365 231.585 210.123 231.543 209.88 231.55V231.55Z" fill="#794BC4"/>
<path d="M225.08 231.37C224.745 231.376 224.419 231.482 224.144 231.674C223.868 231.866 223.657 232.136 223.535 232.449C223.414 232.761 223.389 233.103 223.462 233.43C223.536 233.758 223.705 234.056 223.949 234.287C224.192 234.517 224.499 234.67 224.829 234.726C225.16 234.782 225.5 234.738 225.806 234.6C226.112 234.462 226.37 234.237 226.547 233.952C226.724 233.667 226.812 233.335 226.8 233C226.787 232.556 226.599 232.136 226.276 231.83C225.954 231.525 225.524 231.359 225.08 231.37V231.37Z" fill="#794BC4"/>
<path d="M103.93 182.37C102.902 182.395 101.88 182.204 100.93 181.81C102.082 182.298 103.337 182.488 104.581 182.365C105.826 182.241 107.019 181.807 108.052 181.102C109.085 180.398 109.925 179.445 110.494 178.332C111.063 177.218 111.344 175.98 111.31 174.73C111.298 174.331 111.254 173.933 111.18 173.54C111.25 173.913 111.29 174.291 111.3 174.67C111.323 175.66 111.15 176.644 110.791 177.567C110.433 178.49 109.896 179.333 109.212 180.048C108.527 180.764 107.708 181.337 106.802 181.735C105.896 182.134 104.92 182.349 103.93 182.37Z" fill="#794BC4"/>
<path d="M100.37 181.56L100.7 181.72L100.92 181.81C101.87 182.204 102.892 182.395 103.92 182.37C104.909 182.348 105.884 182.131 106.789 181.732C107.694 181.333 108.512 180.76 109.195 180.045C109.879 179.33 110.415 178.487 110.772 177.565C111.13 176.643 111.303 175.659 111.28 174.67C111.27 174.291 111.23 173.913 111.16 173.54V173.36C111.16 173.25 111.16 173.15 111.09 173.05C111.02 172.95 111 172.72 110.95 172.56V172.48C110.472 171.109 109.606 169.907 108.458 169.019C107.309 168.132 105.927 167.597 104.48 167.48L96.41 175.55C96.5096 176.804 96.9249 178.013 97.6173 179.064C98.3097 180.115 99.2566 180.974 100.37 181.56Z" fill="#794BC4"/>
<path d="M121 152.11L120.84 152.05L121 152.11Z" fill="#794BC4"/>
<path d="M111.54 161.68C111.952 162.862 112.653 163.922 113.58 164.763C114.507 165.604 115.63 166.2 116.847 166.495C118.063 166.79 119.334 166.776 120.544 166.453C121.753 166.13 122.863 165.51 123.77 164.648C124.678 163.786 125.355 162.71 125.74 161.519C126.125 160.328 126.205 159.059 125.974 157.829C125.742 156.599 125.205 155.447 124.413 154.477C123.621 153.508 122.599 152.752 121.44 152.28L121.31 152.23L120.98 152.11L120.81 152.06C120.397 152.181 119.976 152.271 119.55 152.33L111.26 160.62C111.314 160.943 111.394 161.26 111.5 161.57C111.509 161.608 111.522 161.645 111.54 161.68Z" fill="#794BC4"/>
<path d="M120.56 152H120.63L120.82 152.05C122.187 151.633 123.422 150.869 124.407 149.834C125.392 148.798 126.092 147.526 126.44 146.14C126.44 146.06 126.38 145.98 126.36 145.91C126.025 147.35 125.311 148.675 124.291 149.746C123.271 150.817 121.983 151.595 120.56 152Z" fill="#794BC4"/>
<path d="M123.68 137.74C124.912 138.793 125.809 140.183 126.26 141.74C126.258 141.697 126.258 141.653 126.26 141.61C125.784 140.102 124.889 138.76 123.68 137.74V137.74Z" fill="#794BC4"/>
<path d="M120.56 152C121.98 151.597 123.267 150.822 124.286 149.755C125.306 148.687 126.022 147.367 126.36 145.93C126.36 146 126.36 146.08 126.44 146.16C126.625 145.442 126.709 144.701 126.69 143.96C126.667 143.18 126.539 142.406 126.31 141.66C126.307 141.703 126.307 141.747 126.31 141.79C125.859 140.233 124.962 138.843 123.73 137.79L123.68 137.74L123.38 137.51C123.17 137.36 122.95 137.22 122.74 137.09C121.391 136.262 119.832 135.842 118.25 135.88C116.542 135.918 114.887 136.484 113.512 137.499C112.137 138.514 111.11 139.929 110.57 141.55L120.5 151.48L120.06 151.92L120.68 152.05L120.56 152Z" fill="#794BC4"/>
<path d="M123.33 137.46C123.12 137.31 122.91 137.17 122.69 137.04C122.9 137.17 123.12 137.31 123.33 137.46Z" fill="#794BC4"/>
<path d="M120.81 152.06L120.62 152.01L120.81 152.06Z" fill="#794BC4"/>
<path d="M120.63 152L120.01 151.87L119.55 152.33C119.976 152.271 120.397 152.181 120.81 152.06L120.63 152Z" fill="#794BC4"/>
<path d="M96.4 190.26C96.4306 191.506 96.1487 192.741 95.58 193.85C96.104 192.861 96.404 191.769 96.4588 190.651C96.5137 189.534 96.322 188.418 95.8973 187.382C95.4727 186.347 94.8255 185.418 94.0016 184.66C93.1778 183.903 92.1974 183.336 91.13 183L90.78 183.11C92.3682 183.526 93.7768 184.45 94.7913 185.741C95.8059 187.032 96.3708 188.618 96.4 190.26V190.26Z" fill="#794BC4"/>
<path d="M81.69 192.67L81.63 192.89C82.0878 194.186 82.8868 195.335 83.9428 196.215C84.9988 197.095 86.2726 197.673 87.63 197.89C86.2541 197.654 84.9706 197.041 83.9219 196.12C82.8733 195.198 82.1007 194.004 81.69 192.67V192.67Z" fill="#794BC4"/>
<path d="M81.69 192.67C82.11 194.007 82.8937 195.2 83.9534 196.117C85.013 197.033 86.3068 197.637 87.69 197.86H88.08H88.29C88.5331 197.875 88.7769 197.875 89.02 197.86C90.3843 197.827 91.7148 197.429 92.8735 196.708C94.0323 195.987 94.9771 194.969 95.61 193.76C96.1223 192.758 96.4031 191.654 96.4317 190.528C96.4603 189.403 96.236 188.286 95.7754 187.259C95.3147 186.232 94.6294 185.322 93.77 184.595C92.9107 183.868 91.8991 183.344 90.81 183.06L91.16 182.95C90.5295 182.757 89.8782 182.639 89.22 182.6L81.22 190.6C81.2529 191.354 81.3979 192.099 81.65 192.81L81.69 192.67Z" fill="#794BC4"/>
<path d="M66.79 208.29C67.1049 209.288 67.6224 210.211 68.31 211C67.6257 210.21 67.1117 209.288 66.8 208.29H66.79Z" fill="#794BC4"/>
<path d="M81.51 205.85C81.533 206.855 81.3563 207.854 80.99 208.79C81.3836 207.806 81.5666 206.751 81.5273 205.693C81.4879 204.634 81.2271 203.595 80.7617 202.644C80.2962 201.692 79.6364 200.848 78.8249 200.167C78.0133 199.486 77.068 198.983 76.05 198.69L75.89 198.74C77.4717 199.154 78.8755 200.072 79.8894 201.355C80.9033 202.637 81.4722 204.215 81.51 205.85V205.85Z" fill="#794BC4"/>
<path d="M66.79 208.29C67.1046 209.288 67.6221 210.211 68.31 211C69.0829 211.892 70.0547 212.59 71.147 213.037C72.2392 213.485 73.4214 213.669 74.598 213.575C75.7747 213.482 76.9128 213.113 77.9207 212.499C78.9285 211.884 79.7778 211.041 80.4 210.038C81.0221 209.035 81.3998 207.9 81.5025 206.724C81.6052 205.548 81.43 204.365 80.991 203.269C80.5521 202.173 79.8618 201.196 78.9757 200.416C78.0896 199.637 77.0326 199.076 75.89 198.78L76.05 198.73C75.3197 198.516 74.5605 198.418 73.8 198.44H73.45L66.45 205.44C66.45 205.67 66.45 205.9 66.45 206.13C66.46 206.862 66.5744 207.59 66.79 208.29V208.29Z" fill="#794BC4"/>
<path d="M64.08 216C63.2008 215.204 62.1452 214.628 61 214.32V214.32C62.1469 214.624 63.2035 215.2 64.08 216V216Z" fill="#794BC4"/>
<path d="M66.62 221.44C66.6535 223.376 65.9368 225.25 64.62 226.67V226.67C65.9393 225.248 66.6561 223.37 66.62 221.43V221.44Z" fill="#794BC4"/>
<path d="M66.57 220.71V220.56C66.57 220.37 66.51 220.19 66.48 220C66.45 219.81 66.48 219.88 66.48 219.82C66.48 219.76 66.39 219.47 66.34 219.3L66.28 219.14C66.22 218.96 66.15 218.78 66.07 218.6C66.07 218.6 66.07 218.53 66.07 218.49C65.97 218.28 65.86 218.07 65.75 217.87V217.81L65.44 217.31L65.27 217.09L65.04 216.8C64.97 216.71 64.89 216.63 64.81 216.54L64.63 216.34L64.33 216.05L64.24 215.98C63.3147 215.168 62.2008 214.601 61 214.33C60.3061 214.142 59.5888 214.054 58.87 214.07C58.4637 214.086 58.0592 214.133 57.66 214.21L57.57 214.3C57.2207 214.648 56.9437 215.062 56.7546 215.518C56.5656 215.973 56.4683 216.462 56.4683 216.955C56.4683 217.448 56.5656 217.937 56.7546 218.392C56.9437 218.848 57.2207 219.262 57.57 219.61L64.63 226.68C65.9468 225.26 66.6635 223.386 66.63 221.45C66.61 221.19 66.59 221 66.57 220.71Z" fill="#794BC4"/>
</svg>
